<svg id="Layer_1" data-name="Layer 1" xmlns="http://www.w3.org/2000/svg" xmlns:xlink="http://www.w3.org/1999/xlink" viewBox="0 0 1192.63 1046.44">
  <defs>
    <style>
      .cls-1 {
        font-size: 47.35px;
        font-family: ComicSansMS, Comic Sans MS;
      }
      .cls-1,
      .cls-2 {
        fill: #1dccc3;
      }
    </style>

    <image id="image" width="489" height="693" xlink:href="men.png"/></defs>
  <text class="cls-1" transform="translate(0 55.02) scale(0.91 1)">#</text><path
    d="M78.59,184c1,3.3,3.28,5.78,9.19,5.78,5.24,0,6.87-1.74,6.87-4.22,0-2.65-1.46-4.21-10-5.84-16.75-3.22-19.17-9.52-19.17-16.09C65.52,153.77,74,148,86.36,148c15.08,0,21.14,7.68,21.72,15.07H93.75c-.51-2.23-1.79-4.78-7.42-4.78-4,0-5.88,1.43-5.88,3.77s1.89,3.39,8.93,4.79c17.14,3.38,20.46,9.31,20.46,16.82,0,9.53-7.27,16.46-22.68,16.46-15.21,0-22-7.1-23.33-16.12Z"
    transform="translate(-62.71 -37.96)"/><path d="M114,161.82h5.62v-10.4H134v10.4h6.91v10.11H134v13.38c0,2.62.58,3.89,3.49,3.89a11.57,11.57,0,0,0,2.3-.19v9.56a30.29,30.29,0,0,1-8.25.93c-9.71,0-11.91-4.69-11.91-11.94V171.93H114Z" transform="translate(-62.71 -37.96)"/><path
    d="M182.83,187.37c0,5.59.23,11,.32,11.67H169.92a29.85,29.85,0,0,1-.43-3.8c-2.08,3.1-5.91,4.8-11.85,4.8-8.59,0-13-5.49-13-12.07,0-9.38,7.34-12.6,18.38-12.6,2.43,0,4.84,0,6.09,0v-1.22c0-2.54-.9-4.37-4.64-4.37-3.47,0-4.26,1.56-4.58,3.28H146.54c.21-4.57,3.09-12.25,17.94-12.25,16,0,18.35,7.76,18.35,14Zm-13.69-4.1c-.62,0-2.38-.07-5.15-.07-4.07,0-5.71,1.34-5.71,3.68,0,2,1.4,3.43,4.23,3.43,4.14,0,6.63-1.87,6.63-6.58Z"
    transform="translate(-62.71 -37.96)"/><path d="M190.86,171.5c0-3.25,0-7.25-.06-9.68h14.07c.15,1,.26,3,.32,4.11,1.55-2.17,4.68-5.1,11-5.1,8.52,0,13.26,5.68,13.26,15.25v23H215.06V177.59c0-3.36-1.13-6.11-4.58-6.11s-5.25,2.44-5.25,8.11V199H190.86Z" transform="translate(-62.71 -37.96)"/><path
    d="M276.84,146.59v41c0,3.8,0,8.4.09,11.46H262.79c-.15-1-.24-2.6-.3-3.8-2.21,3-4.63,4.82-10.76,4.82-9.68,0-16.07-8.07-16.07-19.45,0-12.52,8.37-19.76,17.08-19.76,6,0,8.65,2.06,9.7,3.38V146.59Zm-26.51,33.84c0,5.21,2.18,9,6.35,9s6.2-3.37,6.2-9-1.65-8.9-6.15-8.9C252.39,171.5,250.33,175.54,250.33,180.43Z"
    transform="translate(-62.71 -37.96)"/><path d="M298.62,161.82h5.62v-10.4h14.35v10.4h6.91v10.11h-6.91v13.38c0,2.62.59,3.89,3.5,3.89a11.42,11.42,0,0,0,2.29-.19v9.56a30.24,30.24,0,0,1-8.25.93c-9.71,0-11.91-4.69-11.91-11.94V171.93h-5.6Z" transform="translate(-62.71 -37.96)"/><path
    d="M370.31,180.38c0,11.75-7.38,19.66-21.06,19.66C335,200,329,190.18,329,180.46c0-10.49,6.74-19.63,20.72-19.63C363.93,160.83,370.31,171.12,370.31,180.38Zm-26.83,0c0,5.86,2,9.76,6.13,9.76s6-3.85,6-9.5-1.6-9.88-6.06-9.88C345.4,170.74,343.48,174.44,343.48,180.36Z"
    transform="translate(-62.71 -37.96)"/><path
    d="M415.9,195c0,13.56-6.13,20-21.11,20-16.33,0-19.09-8.83-19.64-13.18h14.14c.6,1.91,2,3.53,6.06,3.53,4.78,0,6.3-3.33,6.3-8.58v-2.22c-1.93,2.62-4.42,4.7-10.76,4.7-9.78,0-16-8.34-16-18.43,0-11.66,7.24-19.93,16.82-19.93,6.67,0,9,2.63,9.93,4.67.06-1.15.13-2.85.19-3.68H416c0,2.77-.09,7-.09,11.21Zm-26.33-14.69c0,4.45,1.9,8.31,6.22,8.31s6.26-3,6.26-8.66c0-5.05-1.79-8.45-6.07-8.45C392,171.48,389.57,174.8,389.57,180.28Z"
    transform="translate(-62.71 -37.96)"/><path
    d="M436.16,183.83c.17,3.71,2.25,6.48,6.12,6.48,3.24,0,4.58-1.13,5.47-2.87h13.83c-1.92,6.32-6.57,12.6-19.41,12.6-15.37,0-20.23-10.11-20.23-19.66,0-10.25,6.19-19.55,20.16-19.55,14.34,0,19.82,10.07,19.82,19.7,0,.64,0,2.47,0,3.3Zm11.78-8c-.13-2.76-1.24-5.86-5.7-5.86-4.29,0-5.83,2.56-6,5.86Z"
    transform="translate(-62.71 -37.96)"/><path d="M464.85,161.82h5.62v-10.4h14.35v10.4h6.91v10.11h-6.91v13.38c0,2.62.58,3.89,3.5,3.89a11.47,11.47,0,0,0,2.29-.19v9.56a30.24,30.24,0,0,1-8.25.93c-9.71,0-11.91-4.69-11.91-11.94V171.93h-5.6Z" transform="translate(-62.71 -37.96)"/><path d="M511.43,146.59v19.14c1.47-1.86,4.53-4.9,11.1-4.9,8.45,0,13.2,5.3,13.2,15.58V199H521.29v-21.4c0-3.71-.87-6.16-4.39-6.16-3.76,0-5.43,3.14-5.43,8.68V199H497.14V146.59Z" transform="translate(-62.71 -37.96)"/><path
    d="M556.09,183.83c.17,3.71,2.25,6.48,6.12,6.48,3.24,0,4.58-1.13,5.47-2.87h13.84C579.59,193.76,575,200,562.1,200c-15.37,0-20.23-10.11-20.23-19.66,0-10.25,6.19-19.55,20.17-19.55,14.33,0,19.82,10.07,19.82,19.7,0,.64,0,2.47,0,3.3Zm11.78-8c-.12-2.76-1.23-5.86-5.7-5.86-4.29,0-5.83,2.56-6,5.86Z"
    transform="translate(-62.71 -37.96)"/><path d="M587.9,172.53c0-3.56,0-7.65-.06-10.71h13.94c.21,1.47.39,5.32.39,7.1,1.55-4,4.92-8.19,12.31-8v13.7c-7.79-.26-12.24,2.07-12.24,12.26V199H587.9Z" transform="translate(-62.71 -37.96)"/><path
    d="M66.67,231.79H81v18.7c1.67-2,4.64-4.46,10.67-4.46,8.78,0,16.11,7.19,16.11,18.87,0,13.08-7.72,20.34-16.93,20.34-6,0-8.87-2.19-10.55-4.66,0,.86-.11,2.83-.22,3.66H66.59c.06-4.67.08-8.06.08-12.13Zm26.45,33.68c0-5.05-1.85-8.79-6.18-8.79-4.55,0-6.3,3.48-6.3,8.85,0,4.88,1.74,9,6.13,9S93.12,270.85,93.12,265.47Z"
    transform="translate(-62.71 -37.96)"/><path
    d="M125.15,247a246.18,246.18,0,0,1,6.76,25.72h.31c.77-4,2.83-14.47,5.94-25.72H152.6l-11,32.73c-5.15,15.17-7.89,20.37-20,20.37a41.14,41.14,0,0,1-6.44-.45V288.56c1.16.1,2.08.12,3.09.12,3.81,0,4.8-1.06,5.92-3.41L109.63,247Z"
    transform="translate(-62.71 -37.96)"/><path
    d="M184.62,272.78c.66,2.08,2.43,3.34,5.62,3.34s4.21-1.05,4.21-2.35c0-1.64-1.42-2.32-6.76-3.14-13.64-2.09-15.41-7.41-15.41-12.23,0-6.08,4.34-12.37,16.8-12.37,13.09,0,17.5,6.28,18.06,11.85H194.27c-.36-1.56-1.48-3-4.92-3-3,0-3.56,1.15-3.56,2.21s1.21,1.83,6.35,2.68c13.83,2.26,16.09,7.27,16.09,12.66,0,6.65-4.3,12.78-18.19,12.78-10.64,0-17.67-4.69-18.72-12.46Z"
    transform="translate(-62.71 -37.96)"/><path d="M210.68,247h5.61v-10.4h14.36V247h6.91v10.11h-6.91v13.38c0,2.62.58,3.89,3.49,3.89a11.57,11.57,0,0,0,2.3-.19v9.56a30.34,30.34,0,0,1-8.25.93c-9.72,0-11.92-4.69-11.92-11.94V257.13h-5.59Z" transform="translate(-62.71 -37.96)"/><path
    d="M279.48,272.57c0,5.59.24,11,.33,11.67H266.57a34,34,0,0,1-.43-3.8c-2.08,3.1-5.9,4.8-11.84,4.8-8.6,0-13-5.49-13-12.07,0-9.38,7.33-12.6,18.37-12.6,2.44,0,4.84,0,6.09,0v-1.22c0-2.54-.89-4.37-4.64-4.37-3.46,0-4.25,1.56-4.57,3.28H243.2c.21-4.57,3.09-12.25,17.94-12.25,16,0,18.34,7.76,18.34,14Zm-13.69-4.1c-.62,0-2.37-.07-5.15-.07-4.06,0-5.71,1.34-5.71,3.68,0,2,1.41,3.43,4.24,3.43,4.14,0,6.62-1.86,6.62-6.58Z"
    transform="translate(-62.71 -37.96)"/><path
    d="M297.89,247a246.18,246.18,0,0,1,6.76,25.72H305c.77-4,2.84-14.47,5.94-25.72h14.44l-11,32.73c-5.15,15.17-7.89,20.37-20,20.37a41.14,41.14,0,0,1-6.44-.45V288.56c1.16.1,2.08.12,3.09.12,3.81,0,4.8-1.06,5.92-3.41L282.38,247Z"
    transform="translate(-62.71 -37.96)"/><path d="M329.43,231.79h14.33v10.09H329.43Zm0,15.23h14.33v37.22H329.43Z" transform="translate(-62.71 -37.96)"/><path d="M351.67,256.7c0-3.25,0-7.25-.06-9.68h14.07c.16,1,.26,3,.33,4.11,1.54-2.17,4.67-5.1,11-5.1,8.52,0,13.27,5.68,13.27,15.25v23H375.87V262.79c0-3.36-1.13-6.11-4.58-6.11s-5.24,2.44-5.24,8.11v19.45H351.67Z" transform="translate(-62.71 -37.96)"/><path
    d="M437.44,280.17c0,13.56-6.13,20-21.11,20-16.33,0-19.09-8.84-19.64-13.19h14.14c.59,1.91,2,3.53,6.06,3.53,4.78,0,6.3-3.33,6.3-8.58v-2.22c-1.93,2.62-4.42,4.71-10.76,4.71-9.78,0-16-8.35-16-18.44,0-11.66,7.24-19.93,16.82-19.93,6.67,0,9,2.63,9.93,4.68.06-1.16.12-2.86.19-3.69h14.12c0,2.77-.09,7-.09,11.21Zm-26.33-14.69c0,4.45,1.9,8.31,6.22,8.31s6.26-3,6.26-8.66c0-5.05-1.79-8.45-6.07-8.45C413.51,256.68,411.11,260,411.11,265.48Z"
    transform="translate(-62.71 -37.96)"/><path d="M475.23,274.93l-2.87,9.31H457.58l17.15-49.93h19.21l18.28,49.93H496.38l-3.08-9.31Zm14.65-11.55c-3-9-4.67-14.67-5.81-18.85h-.22c-1,4.13-3,11.22-5.41,18.85Z" transform="translate(-62.71 -37.96)"/><path
    d="M530.88,281.4v17.78H516.59V257.23c0-3.38,0-7.08-.09-10.21h14.07a40.31,40.31,0,0,1,.28,4.25c2-2.69,5.09-5.24,11.33-5.24,8.37,0,15.53,7.55,15.53,18.87,0,13.44-8.67,20.34-17.16,20.34C535.31,285.24,532.45,283.31,530.88,281.4ZM543,265.61c0-5.23-2.1-8.93-6.18-8.93-4.62,0-6.3,3.4-6.3,9s2,8.87,6.17,8.87S543,271,543,265.61Z"
    transform="translate(-62.71 -37.96)"/><path
    d="M600.07,272.57c0,5.59.24,11,.33,11.67H587.17a31.78,31.78,0,0,1-.44-3.8c-2.07,3.1-5.9,4.8-11.84,4.8-8.6,0-13-5.49-13-12.07,0-9.38,7.33-12.6,18.37-12.6,2.44,0,4.84,0,6.09,0v-1.22c0-2.54-.89-4.37-4.64-4.37-3.46,0-4.25,1.56-4.57,3.28H563.79c.21-4.57,3.09-12.25,17.94-12.25,16,0,18.34,7.76,18.34,14Zm-13.69-4.1c-.61,0-2.37-.07-5.15-.07-4.06,0-5.71,1.34-5.71,3.68,0,2,1.41,3.43,4.24,3.43,4.14,0,6.62-1.86,6.62-6.58Z"
    transform="translate(-62.71 -37.96)"/><path d="M608.15,257.73c0-3.56,0-7.65-.07-10.71H622c.22,1.47.39,5.32.39,7.1,1.56-4,4.93-8.19,12.32-8.05v13.7c-7.8-.26-12.25,2.07-12.25,12.26v12.21H608.15Z" transform="translate(-62.71 -37.96)"/><path d="M638.82,247h5.62v-10.4h14.35V247h6.91v10.11h-6.91v13.38c0,2.62.58,3.89,3.49,3.89a11.57,11.57,0,0,0,2.3-.19v9.56a30.34,30.34,0,0,1-8.25.93c-9.71,0-11.92-4.69-11.92-11.94V257.13h-5.59Z" transform="translate(-62.71 -37.96)"/><path
    class="cls-2"
    d="M116.75,77.54c.44,1.54,1.53,2.69,4.27,2.69,2.44,0,3.2-.8,3.2-2s-.68-2-4.63-2.72c-7.8-1.5-8.92-4.43-8.92-7.49,0-4.59,3.93-7.27,9.69-7.27,7,0,9.84,3.57,10.11,7H123.8c-.23-1-.83-2.22-3.45-2.22-1.85,0-2.73.66-2.73,1.75s.88,1.57,4.15,2.23c8,1.57,9.52,4.33,9.52,7.83,0,4.43-3.39,7.65-10.55,7.65s-10.23-3.3-10.86-7.5Z"
    transform="translate(-62.71 -37.96)"/><path class="cls-2" d="M133.23,67.21h2.62V62.37h6.67v4.84h3.22v4.71h-3.22v6.23c0,1.21.28,1.8,1.63,1.8a5.75,5.75,0,0,0,1.07-.08v4.45a14.47,14.47,0,0,1-3.84.43c-4.52,0-5.54-2.19-5.54-5.56V71.92h-2.61Z" transform="translate(-62.71 -37.96)"/><path
    class="cls-2"
    d="M166.58,75.85c0,5.47-3.43,9.15-9.79,9.15-6.62,0-9.44-4.59-9.44-9.11,0-4.88,3.13-9.14,9.64-9.14S166.58,71.54,166.58,75.85Zm-12.47,0c0,2.73.93,4.54,2.85,4.54s2.79-1.79,2.79-4.42-.75-4.59-2.82-4.59S154.11,73.08,154.11,75.84Z"
    transform="translate(-62.71 -37.96)"/><path
    class="cls-2"
    d="M176.13,83.21v8.27h-6.65V72c0-1.58,0-3.3,0-4.76H176a19.24,19.24,0,0,1,.13,2,6,6,0,0,1,5.27-2.44c3.89,0,7.22,3.52,7.22,8.78,0,6.26-4,9.47-8,9.47A5.45,5.45,0,0,1,176.13,83.21Zm5.66-7.35c0-2.43-1-4.15-2.88-4.15-2.15,0-2.93,1.58-2.93,4.17s.91,4.13,2.87,4.13S181.79,78.38,181.79,75.86Z"
    transform="translate(-62.71 -37.96)"/><path class="cls-2" d="M198,67.21h2.62V62.37h6.67v4.84h3.22v4.71h-3.22v6.23c0,1.21.28,1.8,1.63,1.8a5.75,5.75,0,0,0,1.07-.08v4.45a14.47,14.47,0,0,1-3.84.43c-4.52,0-5.54-2.19-5.54-5.56V71.92H198Z" transform="translate(-62.71 -37.96)"/><path class="cls-2" d="M219.64,60.13V69a6.09,6.09,0,0,1,5.17-2.29c3.93,0,6.14,2.47,6.14,7.25V84.53h-6.72v-10c0-1.72-.41-2.86-2-2.86s-2.53,1.46-2.53,4v8.78H213V60.13Z" transform="translate(-62.71 -37.96)"/><path
    class="cls-2"
    d="M240.42,77.46c.08,1.72,1.05,3,2.85,3a2.42,2.42,0,0,0,2.54-1.34h6.44c-.9,2.94-3.06,5.87-9,5.87-7.15,0-9.41-4.71-9.41-9.15,0-4.77,2.88-9.1,9.38-9.1,6.67,0,9.22,4.69,9.22,9.17,0,.3,0,1.15,0,1.54Zm5.48-3.72c-.05-1.29-.57-2.73-2.65-2.73a2.54,2.54,0,0,0-2.79,2.73Z"
    transform="translate(-62.71 -37.96)"/><path
    class="cls-2"
    d="M268.55,77.54c.44,1.54,1.52,2.69,4.27,2.69,2.44,0,3.2-.8,3.2-2s-.68-2-4.64-2.72c-7.79-1.5-8.91-4.43-8.91-7.49,0-4.59,3.93-7.27,9.69-7.27,7,0,9.84,3.57,10.11,7H275.6c-.24-1-.83-2.22-3.45-2.22-1.86,0-2.74.66-2.74,1.75s.88,1.57,4.16,2.23c8,1.57,9.52,4.33,9.52,7.83,0,4.43-3.39,7.65-10.55,7.65s-10.23-3.3-10.86-7.5Z"
    transform="translate(-62.71 -37.96)"/><path
    class="cls-2"
    d="M292.83,83.21v8.27h-6.65V72c0-1.58,0-3.3,0-4.76h6.55a19.24,19.24,0,0,1,.13,2,6,6,0,0,1,5.27-2.44c3.89,0,7.22,3.52,7.22,8.78,0,6.26-4,9.47-8,9.47A5.45,5.45,0,0,1,292.83,83.21Zm5.65-7.35c0-2.43-1-4.15-2.87-4.15-2.15,0-2.93,1.58-2.93,4.17s.91,4.13,2.87,4.13S298.48,78.38,298.48,75.86Z"
    transform="translate(-62.71 -37.96)"/><path class="cls-2" d="M308.2,72.2c0-1.66,0-3.56,0-5h6.49c.1.69.18,2.48.18,3.31a5.57,5.57,0,0,1,5.73-3.75v6.38c-3.63-.13-5.7,1-5.7,5.7v5.68H308.2Z" transform="translate(-62.71 -37.96)"/><path
    class="cls-2"
    d="M328.89,77.46c.08,1.72,1.05,3,2.85,3a2.42,2.42,0,0,0,2.54-1.34h6.44c-.9,2.94-3.06,5.87-9,5.87-7.15,0-9.41-4.71-9.41-9.15,0-4.77,2.88-9.1,9.38-9.1,6.67,0,9.22,4.69,9.22,9.17,0,.3,0,1.15,0,1.54Zm5.48-3.72c-.06-1.29-.57-2.73-2.65-2.73a2.54,2.54,0,0,0-2.79,2.73Z"
    transform="translate(-62.71 -37.96)"/><path
    class="cls-2"
    d="M360.69,79.1c0,2.6.11,5.1.16,5.43h-6.16a14.74,14.74,0,0,1-.2-1.77c-1,1.45-2.75,2.24-5.51,2.24-4,0-6-2.56-6-5.62,0-4.36,3.42-5.86,8.55-5.86h2.84V73c0-1.18-.42-2-2.16-2s-2,.72-2.13,1.52h-6.23c.1-2.13,1.44-5.7,8.35-5.7,7.43,0,8.53,3.61,8.53,6.51Zm-6.36-1.9c-.29,0-1.11,0-2.4,0-1.89,0-2.66.63-2.66,1.71,0,.92.66,1.6,2,1.6,1.93,0,3.09-.87,3.09-3.06Z"
    transform="translate(-62.71 -37.96)"/><path
    class="cls-2"
    d="M382.68,60.13V79.2c0,1.77,0,3.91.05,5.33h-6.58c-.07-.48-.11-1.21-.14-1.77-1,1.39-2.15,2.25-5,2.25-4.5,0-7.47-3.76-7.47-9.05,0-5.83,3.89-9.2,7.94-9.2,2.81,0,4,1,4.52,1.58V60.13ZM370.35,75.87c0,2.43,1,4.17,3,4.17s2.88-1.57,2.88-4.18-.77-4.14-2.86-4.14S370.35,73.6,370.35,75.87Z"
    transform="translate(-62.71 -37.96)"/><use transform="translate(35.91 168.56)" xlink:href="#image"/><use transform="translate(703.63 151.06)" xlink:href="#image"/><image width="489" height="693" transform="translate(189.85 252.01) scale(1.22 1)" xlink:href="arrow.png"/><text x="-62.71" y="-37.96"/><path
    d="M345.79,878.93a3.51,3.51,0,0,0,3.66,3.16c1.9,0,2.91-.81,2.91-2s-.32-2.19-5.65-3.26c-12.78-2.55-14-7.7-14-12.29,0-6.63,5.37-11.63,16.26-11.63,9.95,0,16.53,3.93,17,11.12H352.6a2.88,2.88,0,0,0-3.2-2.7c-1.57,0-2.36.66-2.36,1.68,0,1.22,1.39,1.84,5,2.55,11.95,2.29,15.14,6.78,15.14,12.44,0,7.8-6.57,12.65-17.46,12.65-11.85,0-17.22-5.1-18.2-11.68Z"
    transform="translate(-62.71 -37.96)"/><path d="M385.76,853.79v35.9H371.5v-35.9Z" transform="translate(-62.71 -37.96)"/><path d="M412,889.69l-4.17-8.46h-.09l-4.12,8.46H388.31l11.3-18.2L389,853.79h16.21l3.56,7.85h.09l3.71-7.85h15.24L416.47,871l11.9,18.71Z" transform="translate(-62.71 -37.96)"/><path d="M441.39,853.79H472v9.69H455.42v4.74h15.51v9.69H455.42v11.78h-14Z" transform="translate(-62.71 -37.96)"/><path d="M506.64,876.38H490.11v3.67h18.62l-1.67,9.64H476.31v-35.9h31.17v9.69H490.11v3.21h16.53Z" transform="translate(-62.71 -37.96)"/><path d="M543,876.38H526.42v3.67H545l-1.67,9.64H512.62v-35.9h31.17v9.69H526.42v3.21H543Z" transform="translate(-62.71 -37.96)"/><path d="M557,863.48h-9.82v-9.69h33.76v9.69h-9.73v26.21H557Z" transform="translate(-62.71 -37.96)"/><path d="M606.5,884.59l-1.16,5.1H591.45l11.21-35.9h18.75l12.23,35.9H618.45l-1.25-5.1Zm8.06-9.69c-.83-3.87-1.76-7.95-2.64-11.32h-.37c-.65,3.37-1.76,8.06-2.5,11.32Z" transform="translate(-62.71 -37.96)"/><path d="M636.24,853.79h20.42c8.52,0,14.22,4.59,14.22,12.19,0,8.06-5.74,12.24-13.75,12.24h-6.86v11.47h-14Zm14,15.45h3.15c2.41,0,3.61-1.37,3.61-3.26,0-1.63-.92-3.21-3.61-3.21h-3.15Z" transform="translate(-62.71 -37.96)"/><path d="M683.9,884.59l-1.16,5.1H668.85l11.2-35.9h18.76L711,889.69H695.85l-1.25-5.1ZM692,874.9c-.84-3.87-1.76-7.95-2.64-11.32H689c-.65,3.37-1.76,8.06-2.5,11.32Z" transform="translate(-62.71 -37.96)"/><path
    d="M727.48,877v12.7H713.63v-35.9H736.1c8.84,0,13,4.59,13,10.2,0,4.49-2.22,7.45-5.65,8.82,2.87,1.33,4.72,3.78,4.72,9.13v2.14a28.4,28.4,0,0,0,.51,5.61H735a24.75,24.75,0,0,1-.69-7.19v-1.27c0-3.47-.79-4.24-4.08-4.24Zm0-8.21h4.08c1.62,0,3.47-.66,3.47-2.95,0-2-1.39-3-3.57-3h-4Z"
    transform="translate(-62.71 -37.96)"/><path d="M761.71,863.48h-9.82v-9.69h33.76v9.69h-9.72v26.21H761.71Z" transform="translate(-62.71 -37.96)"/><image width="512" height="512" transform="translate(653.29) scale(0.75)" xlink:href="photo.png"/></svg>
