<svg id="Layer_1" data-name="Layer 1" xmlns="http://www.w3.org/2000/svg" xmlns:xlink="http://www.w3.org/1999/xlink" viewBox="0 0 1100.16 1157.61">
  <defs>
    <style>
      .cls-1 {
        font-size: 47.35px;
        font-family: ComicSansMS, Comic Sans MS;
      }
      .cls-1,
      .cls-29 {
        fill: #1dccc3;
      }
      .cls-2 {
        fill: #fffdfd;
      }
      .cls-3 {
        font-size: 27.53px;
        font-family: FranklinGothic-Medium, Franklin Gothic Medium;
        font-weight: 500;
      }
      .cls-4 {
        letter-spacing: 0.02em;
      }
      .cls-5 {
        letter-spacing: -0.02em;
      }
      .cls-6 {
        letter-spacing: -0.01em;
      }
      .cls-7 {
        letter-spacing: -0.02em;
      }
      .cls-8 {
        letter-spacing: -0.01em;
      }
      .cls-9 {
        letter-spacing: -0.01em;
      }
      .cls-10 {
        letter-spacing: 0;
      }
      .cls-11 {
        letter-spacing: 0.02em;
      }
      .cls-12 {
        letter-spacing: -0.02em;
      }
      .cls-13 {
        letter-spacing: -0.01em;
      }
      .cls-14 {
        letter-spacing: -0.02em;
      }
      .cls-15 {
        letter-spacing: 0;
      }
      .cls-16 {
        letter-spacing: -0.02em;
      }
      .cls-17 {
        letter-spacing: 0;
      }
      .cls-18 {
        letter-spacing: 0.01em;
      }
      .cls-19 {
        letter-spacing: -0.01em;
      }
      .cls-20 {
        letter-spacing: 0.02em;
      }
      .cls-21 {
        letter-spacing: -0.02em;
      }
      .cls-22 {
        letter-spacing: -0.01em;
      }
      .cls-23 {
        letter-spacing: -0.01em;
      }
      .cls-24 {
        letter-spacing: -0.01em;
      }
      .cls-25 {
        letter-spacing: -0.04em;
      }
      .cls-26 {
        letter-spacing: 0.02em;
      }
      .cls-27 {
        letter-spacing: -0.02em;
      }
      .cls-28 {
        letter-spacing: -0.01em;
      }
    </style>
  </defs><image width="4584" height="2030" transform="translate(0 265.21) scale(0.24)" xlink:href="../mask%20detail/traingle1.png"/><image width="4584" height="2441" transform="translate(0 571.77) scale(0.24)" xlink:href="../mask%20detail/triangle2.png"/>
  <text class="cls-1" transform="translate(62.79 41.64) scale(0.91 1)">#</text><path d="M69.49,135.54H88.25v22.94H109V135.54h18.77V199H109V173.11H88.25V199H69.49Z" transform="translate(0.08 -51.34)"/><path
    d="M189.19,175.31c0,14.94-9.37,25-26.78,25-18.08,0-25.8-12.53-25.8-24.9,0-13.33,8.57-25,26.35-25C181.08,150.44,189.19,163.53,189.19,175.31Zm-34.11,0c0,7.46,2.56,12.42,7.79,12.42s7.63-4.89,7.63-12.08c0-7.35-2-12.56-7.71-12.56C157.51,163.06,155.08,167.75,155.08,175.28Z"
    transform="translate(0.08 -51.34)"/><path
    d="M211.15,151.71c3.68,21.15,4.56,27.88,5.16,33.12h.22c1.15-5.89,2.37-13.07,6.67-33.12h16.6c4.37,21.09,5.46,27.57,6.22,32.79h.23c.62-5.16,1.65-13.19,5.32-32.79h17.86L256.14,199h-19.6c-3.3-14.69-4.51-21.23-5.71-27.39h-.22c-1,5-3.08,15.24-6.14,27.39H204.68L192,151.71Z"
    transform="translate(0.08 -51.34)"/><path d="M292.45,151.71h7.15V138.48h18.25v13.23h8.79v12.86h-8.79v17c0,3.33.74,4.95,4.44,4.95a14.87,14.87,0,0,0,2.92-.24v12.16a38.88,38.88,0,0,1-10.49,1.18c-12.35,0-15.15-6-15.15-15.19V164.57h-7.12Z" transform="translate(0.08 -51.34)"/><path
    d="M383.61,175.31c0,14.94-9.37,25-26.78,25-18.08,0-25.8-12.53-25.8-24.9,0-13.33,8.57-25,26.35-25C375.5,150.44,383.61,163.53,383.61,175.31Zm-34.11,0c0,7.46,2.56,12.42,7.79,12.42s7.63-4.89,7.63-12.08c0-7.35-2-12.56-7.71-12.56C351.93,163.06,349.5,167.75,349.5,175.28Z"
    transform="translate(0.08 -51.34)"/><path
    d="M427.31,151.71c3.67,21.15,4.55,27.88,5.15,33.12h.22c1.15-5.89,2.37-13.07,6.67-33.12H456c4.37,21.09,5.46,27.57,6.22,32.79h.23c.62-5.16,1.65-13.19,5.32-32.79h17.86L472.29,199h-19.6c-3.29-14.69-4.51-21.23-5.7-27.39h-.23c-.95,5-3.08,15.24-6.14,27.39H420.83l-12.64-47.33Z"
    transform="translate(0.08 -51.34)"/><path
    d="M535.83,184.2c0,7.1.31,14,.42,14.84H519.42a40.48,40.48,0,0,1-.55-4.84c-2.64,4-7.5,6.11-15.06,6.11-10.93,0-16.49-7-16.49-15.35,0-11.93,9.32-16,23.36-16,3.1,0,6.16,0,7.75,0v-1.55c0-3.24-1.14-5.57-5.9-5.57-4.41,0-5.42,2-5.82,4.17h-17c.27-5.81,3.94-15.58,22.82-15.58,20.32,0,23.32,9.88,23.32,17.8ZM518.43,179c-.79-.06-3-.09-6.55-.09-5.17,0-7.26,1.7-7.26,4.68,0,2.51,1.79,4.36,5.38,4.36,5.26,0,8.43-2.37,8.43-8.37Z"
    transform="translate(0.08 -51.34)"/><path
    d="M559.84,184.47c.84,2.64,3.1,4.24,7.16,4.24s5.35-1.33,5.35-3c0-2.09-1.8-3-8.6-4-17.35-2.65-19.6-9.42-19.6-15.56,0-7.72,5.52-15.73,21.37-15.73,16.64,0,22.25,8,23,15.08H572.12c-.46-2-1.88-3.78-6.26-3.78-3.82,0-4.53,1.46-4.53,2.81,0,1.53,1.55,2.33,8.08,3.41,17.58,2.88,20.46,9.25,20.46,16.1,0,8.45-5.47,16.25-23.13,16.25-13.53,0-22.47-6-23.81-15.84Z"
    transform="translate(0.08 -51.34)"/><path d="M614.9,132.34v24.35c1.87-2.38,5.77-6.25,14.13-6.25,10.74,0,16.78,6.75,16.78,19.83V199H627.45V171.82c0-4.71-1.12-7.83-5.59-7.83-4.79,0-6.9,4-6.9,11v24H596.73v-66.7Z" transform="translate(0.08 -51.34)"/><path d="M85.92,240.69V265c1.87-2.38,5.77-6.25,14.12-6.25,10.75,0,16.79,6.75,16.79,19.83v28.77H98.47V280.17c0-4.71-1.12-7.83-5.59-7.83-4.79,0-6.9,4-6.9,11v24H67.75v-66.7Z" transform="translate(0.08 -51.34)"/><path
    d="M173,292.55c0,7.1.3,13.95.41,14.84H156.57a40.48,40.48,0,0,1-.55-4.84c-2.64,3.95-7.5,6.11-15.06,6.11-10.93,0-16.49-7-16.49-15.35,0-11.93,9.32-16,23.36-16,3.1,0,6.16,0,7.75,0v-1.55c0-3.24-1.14-5.57-5.9-5.57-4.41,0-5.41,2-5.82,4.18h-17c.28-5.82,3.94-15.59,22.82-15.59,20.32,0,23.33,9.88,23.33,17.8Zm-17.41-5.21c-.79-.06-3-.09-6.55-.09-5.17,0-7.26,1.71-7.26,4.68,0,2.51,1.79,4.36,5.38,4.36,5.27,0,8.43-2.37,8.43-8.37Z"
    transform="translate(0.08 -51.34)"/><path d="M183.21,272.36c0-4.13,0-9.21-.09-12.3H201c.19,1.29.33,3.85.41,5.22,2-2.76,5.94-6.49,14-6.49,10.84,0,16.87,7.23,16.87,19.4v29.2H214V280.11c0-4.27-1.43-7.77-5.82-7.77s-6.67,3.1-6.67,10.32v24.73H183.21Z" transform="translate(0.08 -51.34)"/><path
    d="M292.54,240.69v52.12c0,4.84,0,10.69.12,14.58h-18c-.19-1.32-.3-3.31-.38-4.83-2.81,3.77-5.89,6.13-13.69,6.13-12.3,0-20.43-10.27-20.43-24.73,0-15.92,10.64-25.13,21.71-25.13,7.67,0,11,2.61,12.35,4.3V240.69Zm-33.7,43c0,6.63,2.77,11.4,8.07,11.4s7.89-4.29,7.89-11.43c0-7-2.1-11.32-7.83-11.32C261.46,272.37,258.84,277.51,258.84,283.72Z"
    transform="translate(0.08 -51.34)"/><path
    d="M316.79,292.82c.84,2.64,3.1,4.24,7.16,4.24s5.35-1.33,5.35-3c0-2.09-1.8-3-8.6-4-17.35-2.65-19.59-9.42-19.59-15.56,0-7.72,5.52-15.73,21.36-15.73,16.64,0,22.25,8,23,15.08H329.07c-.46-2-1.88-3.78-6.26-3.78-3.82,0-4.53,1.46-4.53,2.81,0,1.53,1.55,2.33,8.09,3.41,17.57,2.88,20.45,9.25,20.45,16.1,0,8.45-5.47,16.25-23.13,16.25-13.53,0-22.46-6-23.8-15.84Z"
    transform="translate(0.08 -51.34)"/><path
    d="M367.27,286.41v-1.86c0-6.55,2.34-10.92,9.53-16.74,3.78-3,5-4.62,5-7,0-2.77-1.48-5.21-5.7-5.21-3.78,0-6.13,2.35-6.56,6.77H353c.67-9.69,6.94-19.62,24.44-19.62,16.28,0,22.93,9.52,22.93,17.93,0,6.22-1.91,10.63-9,16-4.21,3.2-5.87,5.36-5.87,8.91v.77Zm0,21V291.1h18.31v16.29Z"
    transform="translate(0.08 -51.34)"/><path class="cls-2" d="M35.84,485.62h18.4V491H42.65v4.19H53.48v5.38H42.65v8.31H35.84Z" transform="translate(0.08 -51.34)"/><path
    class="cls-2"
    d="M75.25,500.17c0,5.47-3.43,9.15-9.79,9.15-6.62,0-9.44-4.59-9.44-9.11,0-4.88,3.13-9.14,9.64-9.14S75.25,495.86,75.25,500.17Zm-12.47,0c0,2.73.93,4.54,2.85,4.54s2.79-1.79,2.79-4.42-.75-4.59-2.82-4.59S62.78,497.4,62.78,500.16Z"
    transform="translate(0.08 -51.34)"/><path class="cls-2" d="M78.13,508.85v-24.4H84.8v24.4Z" transform="translate(0.08 -51.34)"/><path class="cls-2" d="M88.63,508.85v-24.4H95.3v24.4Z" transform="translate(0.08 -51.34)"/><path
    class="cls-2"
    d="M117.43,500.17c0,5.47-3.43,9.15-9.79,9.15-6.62,0-9.44-4.59-9.44-9.11,0-4.88,3.13-9.14,9.63-9.14S117.43,495.86,117.43,500.17Zm-12.48,0c0,2.73.94,4.54,2.85,4.54s2.79-1.79,2.79-4.42-.74-4.59-2.82-4.59C105.84,495.69,105,497.4,105,500.16Z"
    transform="translate(0.08 -51.34)"/><path
    class="cls-2"
    d="M125.47,491.53c1.34,7.74,1.66,10.2,1.88,12.12h.09c.42-2.15.86-4.78,2.43-12.12H136c1.6,7.72,2,10.09,2.27,12h.09c.23-1.89.6-4.83,1.94-12h6.54l-4.87,17.32h-7.17c-1.2-5.37-1.65-7.77-2.08-10h-.08c-.35,1.83-1.13,5.58-2.25,10H123.1l-4.63-17.32Z"
    transform="translate(0.08 -51.34)"/><path class="cls-2" d="M157.19,485.62h18.4V491H164v4.19h10.83v5.38H164v8.31h-6.81Z" transform="translate(0.08 -51.34)"/><path class="cls-2" d="M178.33,484.45H185v4.69h-6.67Zm0,7.08H185v17.32h-6.67Z" transform="translate(0.08 -51.34)"/><path class="cls-2" d="M194.27,491.53c1.72,5.91,2.52,8.89,3.06,11.74h.1c.52-2.5,1.44-6.29,2.94-11.74h6.71L201,508.85H193.2l-6.08-17.32Z" transform="translate(0.08 -51.34)"/><path
    class="cls-2"
    d="M214.43,501.78c.08,1.72,1,3,2.85,3a2.42,2.42,0,0,0,2.54-1.34h6.44c-.9,2.94-3.06,5.87-9,5.87-7.15,0-9.41-4.71-9.41-9.15,0-4.77,2.87-9.1,9.38-9.1,6.67,0,9.22,4.69,9.22,9.17,0,.3,0,1.15,0,1.54Zm5.48-3.72c-.06-1.29-.57-2.73-2.65-2.73a2.53,2.53,0,0,0-2.79,2.73Z"
    transform="translate(0.08 -51.34)"/><path
    class="cls-2"
    d="M242.55,501.86c.45,1.54,1.53,2.69,4.28,2.69,2.44,0,3.2-.8,3.2-2s-.68-2-4.64-2.72c-7.79-1.5-8.91-4.43-8.91-7.49,0-4.59,3.93-7.27,9.69-7.27,7,0,9.83,3.57,10.11,7h-6.67c-.24-1-.83-2.22-3.45-2.22-1.86,0-2.74.66-2.74,1.75s.88,1.57,4.16,2.23c8,1.57,9.52,4.33,9.52,7.83,0,4.43-3.39,7.65-10.56,7.65s-10.22-3.3-10.85-7.5Z"
    transform="translate(0.08 -51.34)"/><path class="cls-2" d="M259,491.53h2.62v-4.84h6.67v4.84h3.22v4.71h-3.22v6.22c0,1.22.27,1.81,1.63,1.81a5.75,5.75,0,0,0,1.07-.08v4.45a14.47,14.47,0,0,1-3.84.43c-4.52,0-5.55-2.19-5.55-5.56v-7.27H259Z" transform="translate(0.08 -51.34)"/><path
    class="cls-2"
    d="M279.77,501.78c.08,1.72,1.05,3,2.85,3a2.42,2.42,0,0,0,2.54-1.34h6.44c-.9,2.94-3.06,5.87-9,5.87-7.15,0-9.41-4.71-9.41-9.15,0-4.77,2.87-9.1,9.38-9.1,6.67,0,9.22,4.69,9.22,9.17,0,.3,0,1.15,0,1.54Zm5.48-3.72c-.06-1.29-.57-2.73-2.65-2.73a2.53,2.53,0,0,0-2.79,2.73Z"
    transform="translate(0.08 -51.34)"/><path
    class="cls-2"
    d="M301.22,507.53v8.27h-6.65V496.29c0-1.58,0-3.3,0-4.76h6.55a19.24,19.24,0,0,1,.13,2,6,6,0,0,1,5.27-2.44c3.89,0,7.22,3.52,7.22,8.78,0,6.26-4,9.47-8,9.47A5.45,5.45,0,0,1,301.22,507.53Zm5.65-7.35c0-2.43-1-4.15-2.87-4.15-2.15,0-2.93,1.58-2.93,4.17s.91,4.13,2.87,4.13S306.87,502.7,306.87,500.18Z"
    transform="translate(0.08 -51.34)"/><path
    class="cls-2"
    d="M321.68,503.52c.3,1,1.13,1.55,2.61,1.55s2-.49,2-1.09c0-.76-.66-1.08-3.14-1.46-6.35-1-7.17-3.45-7.17-5.69,0-2.83,2-5.76,7.81-5.76,6.09,0,8.14,2.93,8.4,5.52h-6c-.17-.73-.69-1.38-2.29-1.38-1.4,0-1.66.53-1.66,1s.57.86,3,1.25c6.43,1,7.48,3.38,7.48,5.89,0,3.09-2,5.95-8.46,5.95-4.95,0-8.22-2.19-8.71-5.8Z"
    transform="translate(0.08 -51.34)"/><path class="cls-2" d="M341.87,491.53h2.61v-4.84h6.68v4.84h3.22v4.71h-3.22v6.22c0,1.22.27,1.81,1.63,1.81a5.59,5.59,0,0,0,1.06-.08v4.45a14.34,14.34,0,0,1-3.83.43c-4.52,0-5.55-2.19-5.55-5.56v-7.27h-2.6Z" transform="translate(0.08 -51.34)"/><path
    class="cls-2"
    d="M375.22,500.17c0,5.47-3.43,9.15-9.8,9.15-6.61,0-9.43-4.59-9.43-9.11,0-4.88,3.13-9.14,9.63-9.14S375.22,495.86,375.22,500.17Zm-12.48,0c0,2.73.94,4.54,2.85,4.54s2.79-1.79,2.79-4.42-.74-4.59-2.82-4.59S362.74,497.4,362.74,500.16Z"
    transform="translate(0.08 -51.34)"/><path
    class="cls-2"
    d="M390,508.85l-5.74-23.23h7.15c.95,5.12,2.34,12,2.85,16.69h.06c.78-4.72,2.29-11.51,3.49-16.69H404c1.16,5,2.69,11.92,3.47,16.51h.08c.6-4.94,2-11.76,2.86-16.51h6.78l-6.11,23.23h-7.18c-1.16-4.88-2.53-11.28-3.38-15.55h-.06c-.7,4.23-2.06,10.32-3.27,15.55Z"
    transform="translate(0.08 -51.34)"/><path
    class="cls-2"
    d="M434.63,503.42c0,2.6.11,5.1.15,5.43h-6.15a14.74,14.74,0,0,1-.2-1.77c-1,1.45-2.75,2.24-5.52,2.24-4,0-6-2.56-6-5.62,0-4.36,3.41-5.86,8.55-5.86h2.83v-.57c0-1.18-.41-2-2.16-2s-2,.72-2.12,1.52h-6.23c.1-2.13,1.44-5.7,8.35-5.7,7.43,0,8.53,3.61,8.53,6.51Zm-6.37-1.9c-.28,0-1.1,0-2.39,0-1.89,0-2.66.63-2.66,1.71,0,.92.66,1.6,2,1.6,1.93,0,3.08-.87,3.08-3.06Z"
    transform="translate(0.08 -51.34)"/><path
    class="cls-2"
    d="M443.42,503.52c.3,1,1.13,1.55,2.61,1.55s2-.49,2-1.09c0-.76-.66-1.08-3.15-1.46-6.34-1-7.16-3.45-7.16-5.69,0-2.83,2-5.76,7.81-5.76,6.09,0,8.14,2.93,8.4,5.52h-6c-.17-.73-.69-1.38-2.29-1.38-1.4,0-1.66.53-1.66,1s.57.86,3,1.25c6.43,1,7.48,3.38,7.48,5.89,0,3.09-2,5.95-8.46,5.95-4.95,0-8.22-2.19-8.71-5.8Z"
    transform="translate(0.08 -51.34)"/><path class="cls-2" d="M463.56,484.45v8.9a6.1,6.1,0,0,1,5.17-2.28c3.93,0,6.14,2.47,6.14,7.25v10.53h-6.72v-10c0-1.72-.41-2.86-2-2.86s-2.52,1.46-2.52,4v8.78h-6.67v-24.4Z" transform="translate(0.08 -51.34)"/><path class="cls-2" d="M492,508.85V500.8a1.52,1.52,0,0,0-.3-.91l-8.49-14.27h8.06c1.69,3.34,3.47,6.86,4.49,9.31,1-2.37,2.86-5.81,4.58-9.31h7.37L499,500.12a1.45,1.45,0,0,0-.16.8v7.93Z" transform="translate(0.08 -51.34)"/><path
    class="cls-2"
    d="M524.29,500.17c0,5.47-3.43,9.15-9.8,9.15-6.61,0-9.44-4.59-9.44-9.11,0-4.88,3.14-9.14,9.64-9.14S524.29,495.86,524.29,500.17Zm-12.48,0c0,2.73.94,4.54,2.85,4.54s2.79-1.79,2.79-4.42-.74-4.59-2.82-4.59C512.7,495.69,511.81,497.4,511.81,500.16Z"
    transform="translate(0.08 -51.34)"/><path
    class="cls-2"
    d="M544.85,503.31c0,1.84,0,4.05,0,5.54h-6.54c-.07-.46-.08-1.22-.11-1.81-.89,1.24-2.08,2.28-5.26,2.28-3.42,0-5.9-2.27-5.9-7.06V491.53h6.68v9.77c0,1.94.58,3.08,2.07,3.08,1.75,0,2.38-1.2,2.38-4.22v-8.63h6.67Z"
    transform="translate(0.08 -51.34)"/><path class="cls-2" d="M548.55,496.52c0-1.66,0-3.56,0-5H555a31.09,31.09,0,0,1,.19,3.31,5.57,5.57,0,0,1,5.73-3.75v6.38c-3.63-.13-5.7,1-5.7,5.7v5.68h-6.67Z" transform="translate(0.08 -51.34)"/><path class="cls-2" d="M571.85,485.62h6.86V494h7.61v-8.39h6.86v23.23h-6.86v-9.49h-7.61v9.49h-6.86Z" transform="translate(0.08 -51.34)"/><path
    class="cls-2"
    d="M614,503.42c0,2.6.11,5.1.15,5.43H608a14.74,14.74,0,0,1-.2-1.77c-1,1.45-2.75,2.24-5.52,2.24-4,0-6-2.56-6-5.62,0-4.36,3.41-5.86,8.55-5.86h2.83v-.57c0-1.18-.41-2-2.16-2s-2,.72-2.12,1.52h-6.23c.1-2.13,1.44-5.7,8.35-5.7,7.43,0,8.53,3.61,8.53,6.51Zm-6.37-1.9c-.28,0-1.1,0-2.39,0-1.89,0-2.66.63-2.66,1.71,0,.92.66,1.6,2,1.6,1.93,0,3.08-.87,3.08-3.06Z"
    transform="translate(0.08 -51.34)"/><path class="cls-2" d="M617.77,496c0-1.52,0-3.38,0-4.51h6.55c.07.48.12,1.41.15,1.91a5.88,5.88,0,0,1,5.13-2.37c4,0,6.17,2.64,6.17,7.1v10.68H629v-10c0-1.56-.53-2.84-2.13-2.84s-2.44,1.13-2.44,3.77v9.05h-6.69Z" transform="translate(0.08 -51.34)"/><path
    class="cls-2"
    d="M657.77,484.45v19.07c0,1.77,0,3.91,0,5.33h-6.57c-.07-.48-.11-1.21-.14-1.77-1,1.39-2.16,2.25-5,2.25-4.5,0-7.48-3.76-7.48-9.05,0-5.83,3.9-9.2,7.95-9.2,2.8,0,4,1,4.51,1.58v-8.21Zm-12.33,15.74c0,2.43,1,4.17,2.95,4.17s2.89-1.57,2.89-4.18-.77-4.14-2.87-4.14S645.44,497.92,645.44,500.19Z"
    transform="translate(0.08 -51.34)"/><path
    class="cls-2"
    d="M666.64,503.52c.31,1,1.14,1.55,2.62,1.55s2-.49,2-1.09c0-.76-.66-1.08-3.15-1.46-6.34-1-7.16-3.45-7.16-5.69,0-2.83,2-5.76,7.81-5.76,6.09,0,8.14,2.93,8.4,5.52h-6c-.16-.73-.68-1.38-2.28-1.38-1.4,0-1.66.53-1.66,1s.56.86,3,1.25c6.43,1,7.48,3.38,7.48,5.89,0,3.09-2,5.95-8.46,5.95-4.95,0-8.22-2.19-8.71-5.8Z"
    transform="translate(0.08 -51.34)"/><path class="cls-2" d="M686.84,491.53h2.61v-4.84h6.68v4.84h3.21v4.71h-3.21v6.22c0,1.22.27,1.81,1.62,1.81a5.63,5.63,0,0,0,1.07-.08v4.45a14.42,14.42,0,0,1-3.84.43c-4.51,0-5.54-2.19-5.54-5.56v-7.27h-2.6Z" transform="translate(0.08 -51.34)"/><path class="cls-2" d="M708.51,484.45v8.9a6.09,6.09,0,0,1,5.16-2.28c3.94,0,6.14,2.47,6.14,7.25v10.53H713.1v-10c0-1.72-.41-2.86-2.05-2.86s-2.52,1.46-2.52,4v8.78h-6.67v-24.4Z" transform="translate(0.08 -51.34)"/><path
    class="cls-2"
    d="M729.29,501.78c.08,1.72,1,3,2.84,3a2.44,2.44,0,0,0,2.55-1.34h6.44c-.9,2.94-3.06,5.87-9,5.87-7.15,0-9.41-4.71-9.41-9.15,0-4.77,2.88-9.1,9.38-9.1,6.67,0,9.22,4.69,9.22,9.17,0,.3,0,1.15,0,1.54Zm5.48-3.72c-.06-1.29-.58-2.73-2.65-2.73a2.53,2.53,0,0,0-2.79,2.73Z"
    transform="translate(0.08 -51.34)"/><path
    class="cls-2"
    d="M759.26,500.31v8.54h-6.73V485.62h12.75c5.25,0,8,2.82,8,6.67a5.54,5.54,0,0,1-3.64,5.56c1.14.54,3.08,1.66,3.08,5.6v1.25a19.06,19.06,0,0,0,.29,4.15h-6.83a15.63,15.63,0,0,1-.43-4.81v-.78c0-2.16-.63-2.95-3.28-2.95Zm0-4.83h4.19c1.87,0,2.92-.75,2.92-2.43s-1-2.42-2.92-2.42h-4.19Z"
    transform="translate(0.08 -51.34)"/><path class="cls-2" d="M776.29,484.45H783v4.69h-6.67Zm0,7.08H783v17.32h-6.67Z" transform="translate(0.08 -51.34)"/><path
    class="cls-2"
    d="M805,507c0,6.31-2.85,9.29-9.82,9.29-7.6,0-8.88-4.11-9.14-6.13h6.58c.28.89.93,1.64,2.82,1.64,2.22,0,2.93-1.55,2.93-4v-1c-.9,1.22-2.06,2.18-5,2.18-4.55,0-7.42-3.88-7.42-8.58,0-5.42,3.37-9.27,7.83-9.27,3.1,0,4.19,1.23,4.61,2.18,0-.54.06-1.33.09-1.72H805c0,1.29,0,3.25,0,5.22Zm-12.25-6.84c0,2.08.89,3.87,2.89,3.87s2.92-1.39,2.92-4c0-2.35-.83-3.93-2.83-3.93S792.72,497.57,792.72,500.12Z"
    transform="translate(0.08 -51.34)"/><path class="cls-2" d="M815.31,484.45v8.9a6.09,6.09,0,0,1,5.16-2.28c3.94,0,6.14,2.47,6.14,7.25v10.53H819.9v-10c0-1.72-.41-2.86-2-2.86s-2.52,1.46-2.52,4v8.78h-6.67v-24.4Z" transform="translate(0.08 -51.34)"/><path class="cls-2" d="M828.59,491.53h2.61v-4.84h6.68v4.84h3.21v4.71h-3.21v6.22c0,1.22.27,1.81,1.62,1.81a5.63,5.63,0,0,0,1.07-.08v4.45a14.42,14.42,0,0,1-3.84.43c-4.51,0-5.54-2.19-5.54-5.56v-7.27h-2.6Z" transform="translate(0.08 -51.34)"/><path
    class="cls-2"
    d="M855.74,508.85,850,485.62h7.15c1,5.12,2.33,12,2.85,16.69h.06c.78-4.72,2.29-11.51,3.49-16.69h6.14c1.17,5,2.7,11.92,3.48,16.51h.08c.6-4.94,2-11.76,2.85-16.51h6.78l-6.1,23.23H869.6c-1.16-4.88-2.53-11.28-3.38-15.55h-.06c-.7,4.23-2.07,10.32-3.27,15.55Z"
    transform="translate(0.08 -51.34)"/><path
    class="cls-2"
    d="M900.35,503.42c0,2.6.11,5.1.15,5.43h-6.16a14.74,14.74,0,0,1-.2-1.77c-1,1.45-2.74,2.24-5.51,2.24-4,0-6-2.56-6-5.62,0-4.36,3.41-5.86,8.55-5.86H894v-.57c0-1.18-.42-2-2.16-2s-2,.72-2.13,1.52h-6.22c.1-2.13,1.44-5.7,8.35-5.7,7.43,0,8.53,3.61,8.53,6.51Zm-6.37-1.9c-.29,0-1.1,0-2.4,0-1.89,0-2.65.63-2.65,1.71,0,.92.65,1.6,2,1.6,1.92,0,3.08-.87,3.08-3.06Z"
    transform="translate(0.08 -51.34)"/><path
    class="cls-2"
    d="M908.92,491.53a116.86,116.86,0,0,1,3.14,12h.14c.36-1.87,1.32-6.73,2.77-12h6.71l-5.12,15.23c-2.4,7.06-3.67,9.48-9.31,9.48a19.24,19.24,0,0,1-3-.21v-5.17c.54.05,1,.06,1.44.06,1.77,0,2.23-.5,2.75-1.59l-6.74-17.8Z"
    transform="translate(0.08 -51.34)"/>
  <text class="cls-3" transform="translate(24.27 559.48) scale(0.91 1)">
    <tspan class="cls-4">1</tspan>
    <tspan x="16.77" y="0">.
    </tspan>
    <tspan class="cls-5" x="30.28" y="0">W</tspan>
    <tspan class="cls-6" x="53.91" y="0">e</tspan>
    <tspan x="68.19" y="0">t
    </tspan>
    <tspan class="cls-7" x="83.94" y="0">y</tspan>
    <tspan x="95.66" y="0">our hands with clean, running
    </tspan>
    <tspan class="cls-8" x="450.45" y="0">w</tspan>
    <tspan x="469.36" y="0">a</tspan>
    <tspan class="cls-9" x="484.24" y="0">t</tspan>
    <tspan x="492.72" y="0">er (</tspan>
    <tspan class="cls-8" x="531.24" y="0">w</tspan>
    <tspan class="cls-10" x="550.16" y="0">arm or cold), turn o</tspan>
    <tspan class="cls-11" x="775.29" y="0">f</tspan>
    <tspan class="cls-10" x="784.59" y="0">f the tap, and apply soap.</tspan>
  </text>
  <text class="cls-3" transform="translate(24.27 661.48) scale(0.91 1)">2. Lather
    <tspan class="cls-12" x="112.49" y="0">y</tspan>
    <tspan x="124.21" y="0">our hands
    </tspan>
    <tspan class="cls-13" x="248.54" y="0">b</tspan>
    <tspan x="263.03" y="0">y rubbing them
    </tspan>
    <tspan class="cls-14" x="447.56" y="0">t</tspan>
    <tspan x="455.93" y="0">og</tspan>
    <tspan class="cls-6" x="484.75" y="0">e</tspan>
    <tspan x="499.03" y="0">ther with the soap. Lather the ba</tspan>
    <tspan class="cls-15" x="882.88" y="0">c</tspan>
    <tspan x="895.84" y="0">ks of
    </tspan>
    <tspan class="cls-16" x="960.01" y="0">y</tspan>
    <tspan x="971.73" y="0">our hands,</tspan>
    <tspan x="0" y="33.03" xml:space="preserve">
      b</tspan>
    <tspan class="cls-6" x="35.47" y="33.03">e</tspan>
    <tspan x="49.75" y="33.03">t</tspan>
    <tspan class="cls-6" x="58.62" y="33.03">w</tspan>
    <tspan class="cls-17" x="77.64" y="33.03">een
    </tspan>
    <tspan class="cls-12" x="128.3" y="33.03">y</tspan>
    <tspan x="140.02" y="33.03">our
    </tspan>
    <tspan class="cls-6" x="185.44" y="33.03">f</tspan>
    <tspan x="193.97" y="33.03">inge</tspan>
    <tspan class="cls-18" x="244.31" y="33.03">r</tspan>
    <tspan x="253.77" y="33.03">s, and under
    </tspan>
    <tspan class="cls-12" x="406.31" y="33.03">y</tspan>
    <tspan x="418.03" y="33.03">our nails.</tspan>
    <tspan x="0" y="66.07">.</tspan>
  </text>
  <text class="cls-3" transform="translate(24.27 787.22) scale(0.91 1)">3. Scrub
    <tspan class="cls-12" x="103.89" y="0">y</tspan>
    <tspan x="115.61" y="0">our hands
    </tspan>
    <tspan class="cls-8" x="239.94" y="0">f</tspan>
    <tspan class="cls-17" x="248.37" y="0">or at least 20 seconds. Need a timer? Hum the “Hap</tspan>
    <tspan class="cls-19" x="863.27" y="0">p</tspan>
    <tspan class="cls-10" x="877.74" y="0">y Bi</tspan>
    <tspan class="cls-20" x="920.24" y="0">r</tspan>
    <tspan x="929.92" y="0">thd</tspan>
    <tspan class="cls-21" x="968.53" y="0">a</tspan>
    <tspan x="982.94" y="0">y” song
    </tspan>
    <tspan x="0" y="33.03" xml:space="preserve">
      f</tspan>
    <tspan class="cls-6" x="36.22" y="33.03">r</tspan>
    <tspan x="45.19" y="33.03">om beginning
    </tspan>
    <tspan class="cls-14" x="213.44" y="33.03">t</tspan>
    <tspan x="221.81" y="33.03">o end twice.</tspan>
  </text>
  <text class="cls-3" transform="translate(24.27 902.61) scale(0.91 1)">4. Rinse
    <tspan class="cls-16" x="102.8" y="0">y</tspan>
    <tspan x="114.52" y="0">our hands
    </tspan>
    <tspan class="cls-22" x="238.85" y="0">w</tspan>
    <tspan x="257.87" y="0">ell under clean, running
    </tspan>
    <tspan class="cls-23" x="541.55" y="0">w</tspan>
    <tspan x="560.47" y="0">a</tspan>
    <tspan class="cls-24" x="575.35" y="0">t</tspan>
    <tspan x="583.83" y="0">e</tspan>
    <tspan class="cls-25" x="598.26" y="0">r</tspan>
    <tspan class="cls-10" x="606.37" y="0">.
    </tspan>
  </text>
  <text class="cls-3" transform="translate(33.44 998.69) scale(0.91 1)">5. D<tspan class="cls-26" x="47.68" y="0">r</tspan>
    <tspan class="cls-10" x="57.46" y="0">y
    </tspan>
    <tspan class="cls-16" x="76.51" y="0">y</tspan>
    <tspan x="88.23" y="0">our hands using a clean
    </tspan>
    <tspan class="cls-27" x="375.12" y="0">t</tspan>
    <tspan class="cls-28" x="383.5" y="0">o</tspan>
    <tspan class="cls-6" x="397.81" y="0">w</tspan>
    <tspan x="416.83" y="0">el or air d</tspan>
    <tspan class="cls-26" x="527.9" y="0">r</tspan>
    <tspan class="cls-10" x="537.68" y="0">y them.</tspan>
    <tspan x="0" y="33.03">.</tspan>
  </text><path
    class="cls-29"
    d="M116.75,77.54c.44,1.54,1.53,2.69,4.27,2.69,2.44,0,3.2-.8,3.2-2s-.68-2-4.63-2.72c-7.8-1.5-8.92-4.43-8.92-7.49,0-4.59,3.93-7.27,9.69-7.27,7,0,9.84,3.57,10.11,7H123.8c-.23-1-.83-2.22-3.45-2.22-1.85,0-2.73.66-2.73,1.75s.88,1.57,4.15,2.23c8,1.57,9.52,4.33,9.52,7.83,0,4.43-3.39,7.65-10.55,7.65s-10.23-3.3-10.86-7.5Z"
    transform="translate(0.08 -51.34)"/><path class="cls-29" d="M133.23,67.21h2.62V62.37h6.67v4.84h3.22v4.71h-3.22v6.23c0,1.21.28,1.8,1.63,1.8a5.75,5.75,0,0,0,1.07-.08v4.45a14.47,14.47,0,0,1-3.84.43c-4.52,0-5.54-2.19-5.54-5.56V71.92h-2.61Z" transform="translate(0.08 -51.34)"/><path
    class="cls-29"
    d="M166.58,75.85c0,5.47-3.43,9.15-9.79,9.15-6.62,0-9.44-4.59-9.44-9.11,0-4.88,3.13-9.14,9.64-9.14S166.58,71.54,166.58,75.85Zm-12.47,0c0,2.73.93,4.54,2.85,4.54s2.79-1.79,2.79-4.42-.75-4.59-2.82-4.59S154.11,73.08,154.11,75.84Z"
    transform="translate(0.08 -51.34)"/><path
    class="cls-29"
    d="M176.13,83.21v8.27h-6.65V72c0-1.58,0-3.3,0-4.76H176a19.24,19.24,0,0,1,.13,2,6,6,0,0,1,5.27-2.44c3.89,0,7.22,3.52,7.22,8.78,0,6.26-4,9.47-8,9.47A5.45,5.45,0,0,1,176.13,83.21Zm5.66-7.35c0-2.43-1-4.15-2.88-4.15-2.15,0-2.93,1.58-2.93,4.17s.91,4.13,2.87,4.13S181.79,78.38,181.79,75.86Z"
    transform="translate(0.08 -51.34)"/><path class="cls-29" d="M198,67.21h2.62V62.37h6.67v4.84h3.22v4.71h-3.22v6.23c0,1.21.28,1.8,1.63,1.8a5.75,5.75,0,0,0,1.07-.08v4.45a14.47,14.47,0,0,1-3.84.43c-4.52,0-5.54-2.19-5.54-5.56V71.92H198Z" transform="translate(0.08 -51.34)"/><path class="cls-29" d="M219.64,60.13V69a6.09,6.09,0,0,1,5.17-2.29c3.93,0,6.14,2.47,6.14,7.25V84.53h-6.72v-10c0-1.72-.41-2.86-2-2.86s-2.53,1.46-2.53,4v8.78H213V60.13Z" transform="translate(0.08 -51.34)"/><path
    class="cls-29"
    d="M240.42,77.46c.08,1.72,1.05,3,2.85,3a2.42,2.42,0,0,0,2.54-1.34h6.44c-.9,2.94-3.06,5.87-9,5.87-7.15,0-9.41-4.71-9.41-9.15,0-4.77,2.88-9.1,9.38-9.1,6.67,0,9.22,4.69,9.22,9.17,0,.3,0,1.15,0,1.54Zm5.48-3.72c-.05-1.29-.57-2.73-2.65-2.73a2.54,2.54,0,0,0-2.79,2.73Z"
    transform="translate(0.08 -51.34)"/><path
    class="cls-29"
    d="M268.55,77.54c.44,1.54,1.52,2.69,4.27,2.69,2.44,0,3.2-.8,3.2-2s-.68-2-4.64-2.72c-7.79-1.5-8.91-4.43-8.91-7.49,0-4.59,3.93-7.27,9.69-7.27,7,0,9.84,3.57,10.11,7H275.6c-.24-1-.83-2.22-3.45-2.22-1.86,0-2.74.66-2.74,1.75s.88,1.57,4.16,2.23c8,1.57,9.52,4.33,9.52,7.83,0,4.43-3.39,7.65-10.55,7.65s-10.23-3.3-10.86-7.5Z"
    transform="translate(0.08 -51.34)"/><path
    class="cls-29"
    d="M292.83,83.21v8.27h-6.65V72c0-1.58,0-3.3,0-4.76h6.55a19.24,19.24,0,0,1,.13,2,6,6,0,0,1,5.27-2.44c3.89,0,7.22,3.52,7.22,8.78,0,6.26-4,9.47-8,9.47A5.45,5.45,0,0,1,292.83,83.21Zm5.65-7.35c0-2.43-1-4.15-2.87-4.15-2.15,0-2.93,1.58-2.93,4.17s.91,4.13,2.87,4.13S298.48,78.38,298.48,75.86Z"
    transform="translate(0.08 -51.34)"/><path class="cls-29" d="M308.2,72.2c0-1.66,0-3.56,0-5h6.49c.1.69.18,2.48.18,3.31a5.57,5.57,0,0,1,5.73-3.75v6.38c-3.63-.13-5.7,1-5.7,5.7v5.68H308.2Z" transform="translate(0.08 -51.34)"/><path
    class="cls-29"
    d="M328.89,77.46c.08,1.72,1.05,3,2.85,3a2.42,2.42,0,0,0,2.54-1.34h6.44c-.9,2.94-3.06,5.87-9,5.87-7.15,0-9.41-4.71-9.41-9.15,0-4.77,2.88-9.1,9.38-9.1,6.67,0,9.22,4.69,9.22,9.17,0,.3,0,1.15,0,1.54Zm5.48-3.72c-.06-1.29-.57-2.73-2.65-2.73a2.54,2.54,0,0,0-2.79,2.73Z"
    transform="translate(0.08 -51.34)"/><path
    class="cls-29"
    d="M360.69,79.1c0,2.6.11,5.1.16,5.43h-6.16a14.74,14.74,0,0,1-.2-1.77c-1,1.45-2.75,2.24-5.51,2.24-4,0-6-2.56-6-5.62,0-4.36,3.42-5.86,8.55-5.86h2.84V73c0-1.18-.42-2-2.16-2s-2,.72-2.13,1.52h-6.23c.1-2.13,1.44-5.7,8.35-5.7,7.43,0,8.53,3.61,8.53,6.51Zm-6.36-1.9c-.29,0-1.11,0-2.4,0-1.89,0-2.66.63-2.66,1.71,0,.92.66,1.6,2,1.6,1.93,0,3.09-.87,3.09-3.06Z"
    transform="translate(0.08 -51.34)"/><path
    class="cls-29"
    d="M382.68,60.13V79.2c0,1.77,0,3.91.05,5.33h-6.58c-.07-.48-.11-1.21-.14-1.77-1,1.39-2.15,2.25-5,2.25-4.5,0-7.47-3.76-7.47-9.05,0-5.83,3.89-9.2,7.94-9.2,2.81,0,4,1,4.52,1.58V60.13ZM370.35,75.87c0,2.43,1,4.17,3,4.17s2.88-1.57,2.88-4.18-.77-4.14-2.86-4.14S370.35,73.6,370.35,75.87Z"
    transform="translate(0.08 -51.34)"/><image width="512" height="341" transform="translate(691.67 33.19) scale(0.74)" xlink:href="Soap.png"/></svg>
